<?xml version="1.0" encoding="UTF-8"?>
<svg version="1.1" xmlns="http://www.w3.org/2000/svg" width="640" height="640">
<path d="M0 0 C211.2 0 422.4 0 640 0 C640 211.2 640 422.4 640 640 C428.8 640 217.6 640 0 640 C0 428.8 0 217.6 0 0 Z " fill="#FEFEFE" transform="translate(0,0)"/>
<path d="M0 0 C10.28467825 -0.09328938 20.56925339 -0.16406077 30.85427094 -0.20724869 C35.63167932 -0.22799224 40.4087951 -0.25606328 45.18603516 -0.30175781 C49.80912592 -0.34569369 54.43193789 -0.36923616 59.05522156 -0.37950897 C60.80600871 -0.38681575 62.55678318 -0.40107985 64.30744934 -0.42292023 C83.30371422 -0.65016143 99.41101393 2.20383865 113.70703125 15.61328125 C122.15520926 24.40687028 126.58628442 34.86985919 127 47 C127.09474609 48.74216797 127.09474609 48.74216797 127.19140625 50.51953125 C127.74870238 68.55075758 122.90359488 83.94342497 115 100 C114.34 100 113.68 100 113 100 C112.731875 100.72574219 112.46375 101.45148438 112.1875 102.19921875 C111.01329619 104.96864024 109.6605676 107.30919434 108 109.8125 C107.484375 110.60269531 106.96875 111.39289063 106.4375 112.20703125 C105.963125 112.79871094 105.48875 113.39039063 105 114 C104.34 114 103.68 114 103 114 C103 114.66 103 115.32 103 116 C81.95176877 135.67124414 59.85634959 140.36654278 31.79296875 140.1953125 C29.97309018 140.19157357 28.15320957 140.18873077 26.33332825 140.18673706 C21.58725236 140.17916978 16.84130259 140.15958221 12.09527588 140.1373291 C7.23475855 140.11672029 2.37422048 140.10770347 -2.48632812 140.09765625 C-11.99094025 140.0763285 -21.49545956 140.04227798 -31 140 C-30.01933923 130.52575446 -30.01933923 130.52575446 -29.08984375 126.3203125 C-28.90881104 125.49233154 -28.72777832 124.66435059 -28.54125977 123.8112793 C-28.24239868 122.48157104 -28.24239868 122.48157104 -27.9375 121.125 C-27.72343506 120.15667236 -27.50937012 119.18834473 -27.28881836 118.19067383 C-24.25132608 104.52037601 -21.10982193 90.8729486 -17.97119141 77.22558594 C-17.07553901 73.33074272 -16.1839598 69.43497488 -15.29296875 65.5390625 C-13.20431476 56.42417129 -11.11513563 47.31356579 -8.8125 38.25 C-7.34800529 32.48242207 -6.0496931 26.69892745 -4.83520508 20.87402344 C-3.91136104 16.58885616 -2.91751567 12.32378499 -1.90625 8.05859375 C-1.72223633 7.27963745 -1.53822266 6.50068115 -1.34863281 5.69812012 C-0.89979619 3.7985794 -0.4499984 1.89926583 0 0 Z " fill="#2A2E53" transform="translate(195,249)"/>
<path d="M0 0 C12.10062499 -0.04642284 24.20122866 -0.08191973 36.30192471 -0.10362434 C41.92128593 -0.11404357 47.54058605 -0.12816877 53.15991211 -0.15087891 C58.58694621 -0.17267364 64.01392167 -0.18458262 69.44099617 -0.18975449 C71.50734441 -0.19343835 73.57368959 -0.20063192 75.64001274 -0.21146011 C78.54319977 -0.22606313 81.44614715 -0.22797426 84.34936523 -0.22705078 C85.61928314 -0.23783661 85.61928314 -0.23783661 86.91485596 -0.24884033 C97.5291927 -0.21251242 107.52372569 2.32718831 116 9 C122.86206912 16.66543331 125.54156386 23.56938567 125.375 33.75 C125.36557373 34.63671387 125.35614746 35.52342773 125.34643555 36.43701172 C125.04614361 49.49432741 120.66291682 63.01302948 111.4296875 72.63671875 C103.81575266 79.72500537 94.41701153 86.36595898 84 88 C85.51421981 91.19916048 87.31393171 94.10171087 89.25 97.0625 C91.68339903 100.84610802 93.94652881 104.65546038 96.0625 108.625 C98.3555994 112.91768208 100.88339573 116.93435531 103.62890625 120.94921875 C104.85731995 122.78658966 105.98007054 124.63673192 107.0625 126.5625 C108.94171535 129.89659175 110.95701059 133.09674213 113.046875 136.30078125 C114 138 114 138 114 140 C97.5 140 81 140 64 140 C62.02 136.04 60.04 132.08 58 128 C55.76539545 124.58411894 55.76539545 124.58411894 53.47314453 121.20703125 C50.85921541 117.29090276 48.67054953 113.14117602 46.4375 109 C45.06918336 106.48400052 43.70123999 103.96910199 42.30493164 101.46850586 C41 99 41 99 39.92749023 96.40844727 C38.81903699 93.90320906 37.86657189 92.00980388 36 90 C32.37930856 88.77674788 28.97974725 88.82798581 25.1875 88.9375 C24.20845703 88.93041016 23.22941406 88.92332031 22.22070312 88.91601562 C19.81084889 88.90426024 17.40875592 88.93350548 15 89 C14.90203125 89.76441406 14.8040625 90.52882813 14.703125 91.31640625 C13.4766409 100.1026846 11.37508828 108.46252049 9 117 C8.44895857 119.08087335 7.90660045 121.16407538 7.375 123.25 C7.04628906 124.52617187 7.04628906 124.52617187 6.7109375 125.828125 C5.65902047 130.5212933 4.86036937 135.26796844 4 140 C-8.87 140 -21.74 140 -35 140 C-35 134.28939744 -34.62930506 130.81447919 -33.125 125.5 C-32.77695312 124.2521875 -32.42890625 123.004375 -32.0703125 121.71875 C-31.71710938 120.4915625 -31.36390625 119.264375 -31 118 C-30.66226562 116.73671875 -30.32453125 115.4734375 -29.9765625 114.171875 C-28.8717012 110.58328551 -27.37114391 108.89806478 -25 106 C-15.41038285 89.99088706 -8.21170373 73.27040754 -9.282547 54.33213806 C-9.89857828 41.08488736 -7.87285028 29.76521118 -4.47265625 17.0625 C-4.03958232 15.39686693 -3.60797357 13.73085219 -3.17785645 12.06445312 C-2.1353515 8.03838402 -1.07336002 4.01794787 0 0 Z " fill="#2B3054" transform="translate(332,249)"/>
<path d="M0 0 C5.06782482 -0.14976523 10.13432625 -0.25787149 15.20385742 -0.32958984 C16.92348707 -0.35952444 18.64296721 -0.40028857 20.36206055 -0.45263672 C30.89223741 -0.7649595 39.28434037 -0.78743535 48 6 C52.32092964 10.21554112 53.78870769 14.69543964 54.3359375 20.6640625 C54.48251946 35.52747283 50.6306811 49.46193039 40 60.4375 C27.57199503 71.99295054 14.95151918 72.15841905 -1 72.0625 C-2.45702971 72.05747576 -3.9140611 72.05291449 -5.37109375 72.04882812 C-8.9140977 72.03789388 -12.45703797 72.02068 -16 72 C-15.34573569 65.6999493 -14.08195552 59.70677057 -12.5625 53.5625 C-12.12564355 51.77229599 -11.68943969 49.98193259 -11.25390625 48.19140625 C-11.04145264 47.32056396 -10.82899902 46.44972168 -10.61010742 45.55249023 C-10.03504331 43.14660976 -9.49083979 40.73649141 -8.9609375 38.3203125 C-8.0769901 34.29383646 -7.08454227 30.30626355 -6.0625 26.3125 C-4.42789122 19.86602601 -2.96859974 13.40221103 -1.61328125 6.890625 C-1.12236679 4.57676068 -0.5815747 2.29185334 0 0 Z " fill="#FBFCFC" transform="translate(227,283)"/>
<path d="M0 0 C6.63855742 -0.05064489 13.27706514 -0.08571023 19.91577148 -0.10986328 C22.17490501 -0.11993058 24.43402547 -0.13358538 26.69311523 -0.15087891 C29.93736999 -0.17509508 33.18145271 -0.18647575 36.42578125 -0.1953125 C37.43836502 -0.20563507 38.45094879 -0.21595764 39.49421692 -0.22659302 C40.43496567 -0.22674408 41.37571442 -0.22689514 42.3449707 -0.22705078 C43.17325882 -0.231492 44.00154694 -0.23593323 44.85493469 -0.24050903 C47 0 47 0 50 2 C50 2.66 50 3.32 50 4 C50.99 4.33 51.98 4.66 53 5 C53.64571013 11.77995635 52.85818305 15.60565395 48.77734375 21.1171875 C44.35553833 25.80138576 38.18834969 26.82749217 31.92462158 27.08547974 C29.50376562 27.11528876 27.08505505 27.11246156 24.6640625 27.09765625 C23.78471039 27.0962413 22.90535828 27.09482635 21.99935913 27.09336853 C19.20787058 27.08779877 16.41646406 27.0752519 13.625 27.0625 C11.72526158 27.05748109 9.8255219 27.05291887 7.92578125 27.04882812 C3.28382286 27.03783925 -1.35807469 27.02059557 -6 27 C-5.43755107 20.54153469 -4.26271535 14.64936738 -2.4375 8.4375 C-2.20353516 7.61958984 -1.96957031 6.80167969 -1.72851562 5.95898438 C-1.15880046 3.97079473 -0.58033086 1.98511701 0 0 Z " fill="#FAFBFB" transform="translate(361,283)"/>
<path d="M0 0 C20.295 0.495 20.295 0.495 41 1 C41 1.33 41 1.66 41 2 C40.18845459 2.02505615 39.37690918 2.0501123 38.54077148 2.07592773 C34.83954284 2.19245817 31.13853319 2.314925 27.4375 2.4375 C25.52227539 2.49647461 25.52227539 2.49647461 23.56835938 2.55664062 C21.70727539 2.61948242 21.70727539 2.61948242 19.80859375 2.68359375 C18.67220459 2.72025146 17.53581543 2.75690918 16.36499023 2.79467773 C12.84123653 3.0096873 9.46376492 3.30587093 6 4 C4.00916823 6.4251788 4.00916823 6.4251788 3 9 C3.66 9 4.32 9 5 9 C4.25 15.625 4.25 15.625 2 19 C2.66 19.33 3.32 19.66 4 20 C4 22.31 4 24.62 4 27 C7.3 27.33 10.6 27.66 14 28 C14 28.33 14 28.66 14 29 C7.07 29 0.14 29 -7 29 C-5.89108911 21.23762376 -5.89108911 21.23762376 -4.625 17.875 C-2.67876075 12.03628225 -1.38390883 5.99693827 0 0 Z " fill="#5F6683" transform="translate(354,309)"/>
<path d="M0 0 C0.33 0 0.66 0 1 0 C4.56275041 21.37650244 0.53867342 42.61981225 -11 61 C-11.33 60.34 -11.66 59.68 -12 59 C-11.29719271 57.35445424 -10.58133427 55.71326863 -9.80102539 54.10302734 C-1.89509446 37.78349889 -0.35244629 21.90512959 -1.05004883 3.94506836 C-1 2 -1 2 0 0 Z " fill="#A2A7C9" transform="translate(322,288)"/>
<path d="M0 0 C0.66 0.66 1.32 1.32 2 2 C1.64644564 4.26274788 1.02455574 5.95088852 0 8 C26.73 8 53.46 8 81 8 C81 8.33 81 8.66 81 9 C53.94 9 26.88 9 -1 9 C-0.67 6.03 -0.34 3.06 0 0 Z " fill="#4F5066" transform="translate(165,380)"/>
<path d="M0 0 C0.33 0 0.66 0 1 0 C2.0626042 4.56919807 1.76449169 6.74446121 0 11 C-0.07646165 13.3320802 -0.09143299 15.66845878 0 18 C-0.99 18 -1.98 18 -3 18 C-5.16666667 18.83333333 -5.16666667 18.83333333 -6 21 C-6.33 20.34 -6.66 19.68 -7 19 C-10.96 19 -14.92 19 -19 19 C-19 18.67 -19 18.34 -19 18 C-18.40832031 17.89042969 -17.81664062 17.78085937 -17.20703125 17.66796875 C-9.61559056 16.27336667 -9.61559056 16.27336667 -3.84765625 11.4609375 C-1.53855375 7.73021674 -0.43086096 4.41632485 0 0 Z " fill="#454860" transform="translate(414,291)"/>
<path d="M0 0 C12.87 0 25.74 0 39 0 C39 0.33 39 0.66 39 1 C38.18845459 1.02505615 37.37690918 1.0501123 36.54077148 1.07592773 C32.83954284 1.19245817 29.13853319 1.314925 25.4375 1.4375 C23.52227539 1.49647461 23.52227539 1.49647461 21.56835938 1.55664062 C19.70727539 1.61948242 19.70727539 1.61948242 17.80859375 1.68359375 C16.67220459 1.72025146 15.53581543 1.75690918 14.36499023 1.79467773 C7.57361556 1.86294646 7.57361556 1.86294646 2 5 C1.29289322 6.64991582 0.62056011 8.31562256 0 10 C-0.33 10 -0.66 10 -1 10 C-0.67 6.7 -0.34 3.4 0 0 Z " fill="#5C6076" transform="translate(356,310)"/>
<path d="M0 0 C1.61383188 3.22766376 0.35510523 6.46145287 -0.3125 9.875 C-0.44333984 10.59558594 -0.57417969 11.31617188 -0.70898438 12.05859375 C-1.39324759 15.64849643 -2.10991994 18.84711535 -4 22 C-4.33 22 -4.66 22 -5 22 C-5.125 15.25 -5.125 15.25 -4 13 C-4.66 12.67 -5.32 12.34 -6 12 C-6.75 9.5625 -6.75 9.5625 -7 7 C-6.34 6.34 -5.68 5.68 -5 5 C-4.01 5 -3.02 5 -2 5 C-1.34 3.35 -0.68 1.7 0 0 Z " fill="#282C49" transform="translate(359,283)"/>
<path d="M0 0 C0.33 0 0.66 0 1 0 C0.29843593 7.15595346 -1.30785021 14.01855181 -3 21 C-3.33 21 -3.66 21 -4 21 C-4 19.35 -4 17.7 -4 16 C-4.66 15.67 -5.32 15.34 -6 15 C-5.71185686 8.38711487 -4.80538963 4.80538963 0 0 Z " fill="#333853" transform="translate(223,296)"/>
<path d="M0 0 C1.09731445 0.07831055 1.09731445 0.07831055 2.21679688 0.15820312 C3.99918622 0.28634876 5.7809257 0.4234816 7.5625 0.5625 C8.65516193 3.8404858 8.3986233 4.40381197 7.5625 7.5625 C7.52463099 9.22873639 7.51622155 10.89647597 7.5625 12.5625 C4.59003198 10.01467026 3.14714712 7.10909117 1.5625 3.5625 C1.5625 2.9025 1.5625 2.2425 1.5625 1.5625 C-4.0475 1.5625 -9.6575 1.5625 -15.4375 1.5625 C-15.4375 1.2325 -15.4375 0.9025 -15.4375 0.5625 C-10.14096121 -0.37709624 -5.35081483 -0.42591115 0 0 Z " fill="#41475C" transform="translate(366.4375,335.4375)"/>
<path d="M0 0 C0.66 0 1.32 0 2 0 C1.01857962 3.65802142 -0.17080683 6.37180773 -2.5 9.3125 C-5.469671 13.21950078 -6.27321002 17.21620328 -7 22 C-7.28617187 21.35546875 -7.57234375 20.7109375 -7.8671875 20.046875 C-8.81418662 17.80115872 -8.81418662 17.80115872 -11.125 17.25 C-11.74375 17.1675 -12.3625 17.085 -13 17 C-12.01 16.67 -11.02 16.34 -10 16 C-10 15.34 -10 14.68 -10 14 C-9.34 14 -8.68 14 -8 14 C-7.5978125 12.91138672 -7.5978125 12.91138672 -7.1875 11.80078125 C-6.01329619 9.03135976 -4.6605676 6.69080566 -3 4.1875 C-2.484375 3.39730469 -1.96875 2.60710937 -1.4375 1.79296875 C-0.7259375 0.90544922 -0.7259375 0.90544922 0 0 Z " fill="#CDD3E0" transform="translate(308,349)"/>
<path d="M0 0 C0.66 0.33 1.32 0.66 2 1 C1.74809356 9.14917336 0.99450062 15.80989889 -3 23 C-3.33 23 -3.66 23 -4 23 C-3.48400816 15.1177798 -1.9078547 7.65541695 0 0 Z " fill="#8A90B3" transform="translate(354,309)"/>
<path d="M0 0 C0.33 0.66 0.66 1.32 1 2 C10.9 2.33 20.8 2.66 31 3 C31.33 2.01 31.66 1.02 32 0 C32.495 1.98 32.495 1.98 33 4 C20.46 4 7.92 4 -5 4 C-5 3.34 -5 2.68 -5 2 C-3.35 2 -1.7 2 0 2 C0 1.34 0 0.68 0 0 Z " fill="#22223E" transform="translate(302,384)"/>
<path d="M0 0 C1.86687804 3.57621362 3.05317497 7.06703451 4 11 C3.67 11.66 3.34 12.32 3 13 C2.34 13 1.68 13 1 13 C1 13.66 1 14.32 1 15 C0.01 15.495 0.01 15.495 -1 16 C-1.66 16.99 -2.32 17.98 -3 19 C-2.27637073 12.60794144 -1.19656638 6.31972924 0 0 Z " fill="#43475E" transform="translate(169,361)"/>
<path d="M0 0 C1 3 1 3 -1 8 C4.28 8.33 9.56 8.66 15 9 C15 9.33 15 9.66 15 10 C8.07 10 1.14 10 -6 10 C-5 3 -5 3 -2.4375 1.0625 C-1.633125 0.711875 -0.82875 0.36125 0 0 Z " fill="#686C7B" transform="translate(353,328)"/>
<path d="M0 0 C0.66 1.32 1.32 2.64 2 4 C1.34 4 0.68 4 0 4 C0 4.66 0 5.32 0 6 C-1.78104718 7.60178593 -3.62537278 9.13381926 -5.5 10.625 C-6.5209375 11.44226563 -7.541875 12.25953125 -8.59375 13.1015625 C-9.3878125 13.72804688 -10.181875 14.35453125 -11 15 C-11.66 14.34 -12.32 13.68 -13 13 C-12.34 12.01 -11.68 11.02 -11 10 C-10.34 10 -9.68 10 -9 10 C-8.67 9.01 -8.34 8.02 -8 7 C-7.34 7.33 -6.68 7.66 -6 8 C-6 7.01 -6 6.02 -6 5 C-4.35 5 -2.7 5 -1 5 C-0.67 3.35 -0.34 1.7 0 0 Z " fill="#323751" transform="translate(298,359)"/>
<path d="M0 0 C0.33 0 0.66 0 1 0 C1.33 1.65 1.66 3.3 2 5 C2.66 4.34 3.32 3.68 4 3 C3.91253716 4.43861294 3.80434652 5.87597508 3.6875 7.3125 C3.62949219 8.11300781 3.57148438 8.91351563 3.51171875 9.73828125 C2.90698993 12.41109031 2.19537752 13.38866591 0 15 C-0.99 15 -1.98 15 -3 15 C-2.68917128 13.24970238 -2.37626821 11.49977306 -2.0625 9.75 C-1.88847656 8.77546875 -1.71445312 7.8009375 -1.53515625 6.796875 C-1.09620271 4.50278205 -0.59651408 2.25708029 0 0 Z " fill="#3A3C5B" transform="translate(331,252)"/>
<path d="M0 0 C4.55638541 3.12437857 7.7169092 6.97720024 10 12 C9.67 12.66 9.34 13.32 9 14 C8.01 14 7.02 14 6 14 C4.5783681 10.6828589 3.60990891 7.55780196 3 4 C1.35 3.67 -0.3 3.34 -2 3 C-1.34 2.67 -0.68 2.34 0 2 C0 1.34 0 0.68 0 0 Z " fill="#484A5E" transform="translate(445,256)"/>
<path d="M0 0 C10.56 0 21.12 0 32 0 C32 0.99 32 1.98 32 3 C31.13938965 2.84152588 30.2787793 2.68305176 29.39208984 2.51977539 C26.13875093 2.02126103 23.01375194 1.79750626 19.7265625 1.68359375 C18.57285156 1.64169922 17.41914063 1.59980469 16.23046875 1.55664062 C15.04066406 1.51732422 13.85085938 1.47800781 12.625 1.4375 C11.41199219 1.39431641 10.19898438 1.35113281 8.94921875 1.30664062 C5.96624968 1.20094487 2.98320258 1.09884679 0 1 C0 0.67 0 0.34 0 0 Z " fill="#262644" transform="translate(248,250)"/>
<path d="M0 0 C1.32 0 2.64 0 4 0 C4.33 1.65 4.66 3.3 5 5 C4.01 4.67 3.02 4.34 2 4 C1.896875 4.639375 1.79375 5.27875 1.6875 5.9375 C1.460625 6.618125 1.23375 7.29875 1 8 C0.01 8.33 -0.98 8.66 -2 9 C-2.66 8.34 -3.32 7.68 -4 7 C-2.68 4.69 -1.36 2.38 0 0 Z M-6 8 C-5.34 8 -4.68 8 -4 8 C-4 8.99 -4 9.98 -4 11 C-4.66 11 -5.32 11 -6 11 C-6 10.01 -6 9.02 -6 8 Z " fill="#252B47" transform="translate(296,356)"/>
<path d="M0 0 C2.2528047 2.2528047 2.5496379 3.39092488 3.25 6.4375 C3.44078125 7.21996094 3.6315625 8.00242187 3.828125 8.80859375 C4 11 4 11 2 14 C-1 9.375 -1 9.375 -1 6 C-0.34 6 0.32 6 1 6 C0.67 4.02 0.34 2.04 0 0 Z " fill="#242B4D" transform="translate(386,360)"/>
<path d="M0 0 C6.93 0 13.86 0 21 0 C21 0.33 21 0.66 21 1 C19.89140625 1.04898437 18.7828125 1.09796875 17.640625 1.1484375 C16.17705935 1.22349215 14.71351888 1.29903881 13.25 1.375 C12.15558594 1.42140625 12.15558594 1.42140625 11.0390625 1.46875 C5.7013827 1.72598815 5.7013827 1.72598815 1 4 C0.34 4.99 -0.32 5.98 -1 7 C-0.67 4.69 -0.34 2.38 0 0 Z " fill="#E2E4EE" transform="translate(347,338)"/>
<path d="M0 0 C0.33 0 0.66 0 1 0 C1 2.97 1 5.94 1 9 C0.34 9 -0.32 9 -1 9 C-1 10.65 -1 12.3 -1 14 C-3.11299851 10.83050223 -3.25293119 10.49404825 -2.75 7 C-2.66234375 6.319375 -2.5746875 5.63875 -2.484375 4.9375 C-2 3 -2 3 0 0 Z " fill="#2A2846" transform="translate(339,360)"/>
<path d="M0 0 C2.475 0.495 2.475 0.495 5 1 C4.67 1.99 4.34 2.98 4 4 C5.32 4.66 6.64 5.32 8 6 C6.68 6.99 5.36 7.98 4 9 C0 4.5 0 4.5 0 0 Z " fill="#282B48" transform="translate(440,255)"/>
<path d="M0 0 C0.33 0.99 0.66 1.98 1 3 C-0.75 5 -0.75 5 -3 7 C-5 7 -7 7 -9 7 C-9.33 6.01 -9.66 5.02 -10 4 C-7.23735711 3.40267181 -4.83967231 3 -2 3 C-1.34 2.01 -0.68 1.02 0 0 Z " fill="#232446" transform="translate(443,317)"/>
<path d="M0 0 C0.33 0 0.66 0 1 0 C1.28466242 3.08115743 1.52158834 6.16420323 1.75 9.25 C1.83121094 10.12269531 1.91242188 10.99539063 1.99609375 11.89453125 C2.05410156 12.73886719 2.11210937 13.58320313 2.171875 14.453125 C2.2347168 15.22817383 2.29755859 16.00322266 2.36230469 16.80175781 C2 19 2 19 -2 23 C-1.34 15.41 -0.68 7.82 0 0 Z " fill="#CACDD8" transform="translate(457,277)"/>
<path d="M0 0 C1.32 0.33 2.64 0.66 4 1 C4 1.66 4 2.32 4 3 C4.66 3 5.32 3 6 3 C6.66 4.65 7.32 6.3 8 8 C7.01 8.33 6.02 8.66 5 9 C3.35 6.03 1.7 3.06 0 0 Z " fill="#EAEAF3" transform="translate(440,378)"/>
<path d="M0 0 C0.66 0 1.32 0 2 0 C0.74568359 4.4946338 -0.78625645 7.59148411 -4 11 C-4.99 11.33 -5.98 11.66 -7 12 C-5.62159784 9.16661778 -4.13581614 6.44311194 -2.5 3.75 C-1.86578125 2.69039063 -1.86578125 2.69039063 -1.21875 1.609375 C-0.61546875 0.81273437 -0.61546875 0.81273437 0 0 Z " fill="#999FC2" transform="translate(308,349)"/>
<path d="M0 0 C0.33 0 0.66 0 1 0 C1 1.65 1 3.3 1 5 C1.66 5 2.32 5 3 5 C2.67 7.97 2.34 10.94 2 14 C1.34 14 0.68 14 0 14 C0 9.38 0 4.76 0 0 Z " fill="#22264A" transform="translate(345,326)"/>
<path d="M0 0 C0.66 0.66 1.32 1.32 2 2 C1.64644564 4.26274788 1.02455574 5.95088852 0 8 C3.63 8 7.26 8 11 8 C11 8.33 11 8.66 11 9 C7.04 9 3.08 9 -1 9 C-0.67 6.03 -0.34 3.06 0 0 Z " fill="#58576C" transform="translate(165,380)"/>
<path d="M0 0 C0.66 0.33 1.32 0.66 2 1 C-0.31 3.64 -2.62 6.28 -5 9 C-5.33 8.34 -5.66 7.68 -6 7 C-6.66 6.67 -7.32 6.34 -8 6 C-5.36 4.02 -2.72 2.04 0 0 Z " fill="#D8DDE6" transform="translate(288,372)"/>
<path d="M0 0 C0.33 0 0.66 0 1 0 C1 1.65 1 3.3 1 5 C1.66 5 2.32 5 3 5 C3.33 4.01 3.66 3.02 4 2 C5 4 5 4 4.0625 7.125 C3.711875 8.07375 3.36125 9.0225 3 10 C1.68 9.01 0.36 8.02 -1 7 C-0.67 4.69 -0.34 2.38 0 0 Z " fill="#40435E" transform="translate(211,331)"/>
<path d="M0 0 C2 2 2 2 2.375 4.875 C1.92491816 8.62568199 0.87398748 9.66488517 -2 12 C-1 3.42857143 -1 3.42857143 0 0 Z " fill="#45485C" transform="translate(178,322)"/>
<path d="M0 0 C0.33 0.66 0.66 1.32 1 2 C1.66 2 2.32 2 3 2 C2.25 7.75 2.25 7.75 0 10 C-0.66 7.36 -1.32 4.72 -2 2 C-1.34 2 -0.68 2 0 2 C0 1.34 0 0.68 0 0 Z " fill="#ECE9F6" transform="translate(321,280)"/>
<path d="M0 0 C1.24461474 3.59555368 1.08393041 6.36109078 0 10 C-2.5625 11.875 -2.5625 11.875 -5 13 C-3.58192622 8.52761347 -1.88695626 4.28853694 0 0 Z " fill="#53536B" transform="translate(278,322)"/>
<path d="M0 0 C0.66 0.33 1.32 0.66 2 1 C1.02501855 2.5027237 0.04490611 4.00211963 -0.9375 5.5 C-1.48277344 6.3353125 -2.02804687 7.170625 -2.58984375 8.03125 C-3.05519531 8.6809375 -3.52054687 9.330625 -4 10 C-4.33 10 -4.66 10 -5 10 C-5.19878036 6.42195344 -5.04108797 4.00791911 -3 1 C-2.01 0.67 -1.02 0.34 0 0 Z " fill="#3D3E55" transform="translate(449,310)"/>
<path d="M0 0 C0.66 0 1.32 0 2 0 C1.44271087 3.34373475 0.64826111 6.03312999 -1 9 C-2.32 9 -3.64 9 -5 9 C-4.67 8.01 -4.34 7.02 -4 6 C-3.34 6 -2.68 6 -2 6 C-2 5.34 -2 4.68 -2 4 C-1.34 4 -0.68 4 0 4 C0 2.68 0 1.36 0 0 Z " fill="#40425F" transform="translate(453,299)"/>
<path d="M0 0 C3 3.75 3 3.75 3 6 C3.66 6 4.32 6 5 6 C5.33 7.32 5.66 8.64 6 10 C5.01 10 4.02 10 3 10 C-0.22265625 4.82421875 -0.22265625 4.82421875 -1 3 C-0.67 2.01 -0.34 1.02 0 0 Z " fill="#363B54" transform="translate(389,371)"/>
<path d="M0 0 C1.2077558 3.62326739 0.54311128 4.64146369 -1 8 C-1.99 8 -2.98 8 -4 8 C-4 6.02 -4 4.04 -4 2 C-2.68 1.34 -1.36 0.68 0 0 Z " fill="#757B9A" transform="translate(353,328)"/>
<path d="M0 0 C0.33 0.66 0.66 1.32 1 2 C1.66 2 2.32 2 3 2 C2.67 4.64 2.34 7.28 2 10 C0.4375 8.9375 0.4375 8.9375 -1 7 C-0.6875 3.3125 -0.6875 3.3125 0 0 Z " fill="#232749" transform="translate(324,286)"/>
<path d="M0 0 C1.32 0 2.64 0 4 0 C4.33 1.65 4.66 3.3 5 5 C3.68 5 2.36 5 1 5 C0.67 3.35 0.34 1.7 0 0 Z " fill="#242946" transform="translate(377,352)"/>
<path d="M0 0 C0.66 0.33 1.32 0.66 2 1 C0.71937515 2.7074998 -0.61767557 4.37373596 -2 6 C-2.66 6 -3.32 6 -4 6 C-4 5.01 -4 4.02 -4 3 C-4.66 3 -5.32 3 -6 3 C-6.33 3.66 -6.66 4.32 -7 5 C-7 4.01 -7 3.02 -7 2 C-4.69 2 -2.38 2 0 2 C0 1.34 0 0.68 0 0 Z " fill="#31385A" transform="translate(304,353)"/>
<path d="M0 0 C0.33 0 0.66 0 1 0 C1.24887295 2.10192697 1.4734719 4.20673964 1.6875 6.3125 C1.81511719 7.48425781 1.94273437 8.65601563 2.07421875 9.86328125 C2 13 2 13 -1 16 C-0.67 10.72 -0.34 5.44 0 0 Z " fill="#33354A" transform="translate(281,304)"/>
<path d="M0 0 C1.85776765 3.13498292 2.20140476 5.37471432 2 9 C1.34 9 0.68 9 0 9 C-0.66 9.66 -1.32 10.32 -2 11 C-1.85892253 9.54119891 -1.71197585 8.08296449 -1.5625 6.625 C-1.48128906 5.81289063 -1.40007812 5.00078125 -1.31640625 4.1640625 C-1 2 -1 2 0 0 Z " fill="#474761" transform="translate(325,278)"/>
<path d="M0 0 C3.7 3.7 3.7 3.7 4 7 C3.0625 9.25 3.0625 9.25 2 11 C1.67 11 1.34 11 1 11 C0.67 7.37 0.34 3.74 0 0 Z " fill="#40415B" transform="translate(313,271)"/>
<path d="M0 0 C1.32 1.65 2.64 3.3 4 5 C3.34 6.32 2.68 7.64 2 9 C1.71125 8.38125 1.4225 7.7625 1.125 7.125 C0.06279958 4.86674235 0.06279958 4.86674235 -2 3 C-1.34 2.01 -0.68 1.02 0 0 Z " fill="#393A53" transform="translate(426,356)"/>
<path d="M0 0 C2.35448165 2.55068845 2.98327924 3.71017358 3.1875 7.25 C3.125625 8.1575 3.06375 9.065 3 10 C2.01 10.495 2.01 10.495 1 11 C-0.17571451 7.32589215 -0.07366746 3.83070817 0 0 Z " fill="#222645" transform="translate(216,308)"/>
<path d="M0 0 C0.66 0.33 1.32 0.66 2 1 C2 1.99 2 2.98 2 4 C-0.95664519 5.4783226 -3.74229737 5.06032783 -7 5 C-6.01 4.34 -5.02 3.68 -4 3 C-2.66209359 2.00612666 -1.32781878 1.0073108 0 0 Z " fill="#36374A" transform="translate(261,347)"/>
<path d="M0 0 C1.2065625 0.0309375 1.2065625 0.0309375 2.4375 0.0625 C2.125 2 2.125 2 1.4375 4.0625 C0.4475 4.3925 -0.5425 4.7225 -1.5625 5.0625 C-2.2225 3.7425 -2.8825 2.4225 -3.5625 1.0625 C-2.5625 0.0625 -2.5625 0.0625 0 0 Z " fill="#C7CAD8" transform="translate(418.5625,335.9375)"/>
<path d="M0 0 C2.72426311 2.35277269 3.8141763 4.62496331 5 8 C4.01 8 3.02 8 2 8 C0.23537317 4.91190305 0 3.76687864 0 0 Z " fill="#40435A" transform="translate(430,363)"/>
<path d="M0 0 C0.66 0.33 1.32 0.66 2 1 C1.34 1.66 0.68 2.32 0 3 C-0.99 4.485 -0.99 4.485 -2 6 C-3.32 5.34 -4.64 4.68 -6 4 C-4.02 2.68 -2.04 1.36 0 0 Z " fill="#CED1DB" transform="translate(432,329)"/>
<path d="M0 0 C1.1875 1.625 1.1875 1.625 2 4 C0.625 7.25 0.625 7.25 -1 10 C-2.46726798 6.18510326 -1.43336419 3.70988378 0 0 Z " fill="#555668" transform="translate(188,280)"/>
<path d="M0 0 C2.31 0 4.62 0 7 0 C7 1.32 7 2.64 7 4 C4.97954558 3.39816251 2.97888961 2.72693904 1 2 C0.67 1.34 0.34 0.68 0 0 Z " fill="#3C3D53" transform="translate(263,282)"/>
<path d="M0 0 C0.98120464 3.05263664 0.98120464 4.94736336 0 8 C-0.99 7.67 -1.98 7.34 -3 7 C-3 5.02 -3 3.04 -3 1 C-2.34 1.66 -1.68 2.32 -1 3 C-0.67 2.01 -0.34 1.02 0 0 Z " fill="#232648" transform="translate(316,278)"/>
<path d="M0 0 C2.0625 1.75 2.0625 1.75 4 4 C3.75 6.25 3.75 6.25 3 8 C1.68 6.02 0.36 4.04 -1 2 C-0.67 1.34 -0.34 0.68 0 0 Z " fill="#EDF1F6" transform="translate(449,256)"/>
<path d="M0 0 C2.50037734 2.17424117 3.43628586 3.73045798 4 7 C3.01 6.67 2.02 6.34 1 6 C1 5.34 1 4.68 1 4 C0.34 4 -0.32 4 -1 4 C-0.67 2.68 -0.34 1.36 0 0 Z " fill="#3D3D55" transform="translate(440,379)"/>
<path d="M0 0 C0.33 0.66 0.66 1.32 1 2 C1.66 2.33 2.32 2.66 3 3 C0.36 3.66 -2.28 4.32 -5 5 C-4 2 -4 2 -1.9375 0.8125 C-1.298125 0.544375 -0.65875 0.27625 0 0 Z " fill="#333753" transform="translate(437,322)"/>
<path d="M0 0 C0.66 0.33 1.32 0.66 2 1 C2 1.66 2 2.32 2 3 C2.66 3.33 3.32 3.66 4 4 C3.01 4.33 2.02 4.66 1 5 C0.67 5.66 0.34 6.32 0 7 C-0.93423645 3.98968256 -1.04449911 3.13349732 0 0 Z " fill="#3E3E57" transform="translate(180,314)"/>
<path d="M0 0 C0.66 0 1.32 0 2 0 C1.67 2.64 1.34 5.28 1 8 C0.34 8 -0.32 8 -1 8 C-1.04241723 5.66705225 -1.04092937 3.33297433 -1 1 C-0.67 0.67 -0.34 0.34 0 0 Z " fill="#32334D" transform="translate(455,290)"/>
<path d="M0 0 C1.9451 2.91765 2.45276317 4.62537285 3 8 C0.525 7.01 0.525 7.01 -2 6 C-1.34 4.02 -0.68 2.04 0 0 Z " fill="#383B58" transform="translate(317,278)"/>
</svg>
